<svg xmlns="http://www.w3.org/2000/svg" viewBox="0 0 64 64" width="64" height="64" fill="none">
  <defs>
    <marker id="ha" markerWidth="6" markerHeight="6" refX="5" refY="3" orient="auto">
      <path d="M0,0 L6,3 L0,6 Z" fill="#3b82f6"/>
    </marker>
    <marker id="sa" markerWidth="6" markerHeight="6" refX="5" refY="3" orient="auto">
      <path d="M0,0 L6,3 L0,6 Z" fill="#1d4ed8"/>
    </marker>
    <marker id="ea" markerWidth="6" markerHeight="6" refX="5" refY="3" orient="auto">
      <path d="M0,0 L6,3 L0,6 Z" fill="#60a5fa"/>
    </marker>
  </defs>
  <path d="M21,18 Q32,10 43,18" stroke="#3b82f6" stroke-width="2" marker-end="url(#ha)"/>
  <path d="M43,24 Q32,32 21,24" stroke="#3b82f6" stroke-width="2" marker-end="url(#ha)"/>
  <path d="M8,14 Q2,6 8,20" stroke="#1d4ed8" stroke-width="2.2" marker-end="url(#sa)"/>
  <path d="M56,14 Q62,6 56,20" stroke="#1d4ed8" stroke-width="2.2" marker-end="url(#sa)"/>
  <circle cx="14" cy="21" r="9" fill="#2780e3" stroke="#1d4ed8" stroke-width="1.5"/>
  <circle cx="50" cy="21" r="9" fill="#2780e3" stroke="#1d4ed8" stroke-width="1.5"/>
  <line x1="14" y1="30" x2="14" y2="42" stroke="#60a5fa" stroke-width="2" marker-end="url(#ea)"/>
  <line x1="50" y1="30" x2="50" y2="42" stroke="#60a5fa" stroke-width="2" marker-end="url(#ea)"/>
  <polygon points="14,43 21,50 14,57 7,50" fill="#dbeafe" stroke="#60a5fa" stroke-width="1.5"/>
  <polygon points="50,43 57,50 50,57 43,50" fill="#dbeafe" stroke="#60a5fa" stroke-width="1.5"/>
  <circle cx="11" cy="50" r="1.8" fill="#3b82f6"/>
  <circle cx="14" cy="50" r="1.8" fill="#dc2626"/>
  <circle cx="17" cy="50" r="1.8" fill="#16a34a"/>
  <circle cx="47" cy="50" r="1.8" fill="#dc2626"/>
  <circle cx="50" cy="50" r="1.8" fill="#16a34a"/>
  <circle cx="53" cy="50" r="1.8" fill="#3b82f6"/>
</svg>